{"glyphs":{":":{"x_min":0,"x_max":157,"ha":157,"o":"m 43 388 b 43 367 57 354 77 354 b 97 354 111 367 111 388 b 111 408 97 421 77 421 b 57 421 43 408 43 388 z m 43 253 b 43 233 57 219 77 219 b 97 219 111 233 111 253 b 111 274 97 287 77 287 b 57 287 43 274 43 253 z"},"$":{"x_min":0,"x_max":434,"ha":434,"o":"m 227 690 b 227 697 214 701 202 701 b 189 701 176 697 176 690 l 177 650 b 109 645 46 600 46 519 b 45 435 112 380 181 332 l 183 110 b 148 124 120 152 118 196 b 117 203 111 205 105 205 b 95 205 85 199 86 190 b 92 125 133 87 184 73 l 185 -13 b 185 -21 197 -25 209 -25 b 222 -25 236 -20 236 -12 l 235 66 b 315 66 398 116 397 200 b 395 285 310 346 231 402 l 228 612 b 266 599 300 567 305 514 b 306 509 314 507 322 507 b 330 507 339 510 339 515 b 334 590 284 633 228 646 z m 179 440 b 134 475 99 510 99 550 b 99 590 135 614 177 618 z m 331 176 b 332 127 285 101 235 101 l 232 297 b 286 259 330 223 331 176 z"},"?":{"x_min":0,"x_max":383,"ha":383,"o":"m 39 461 b 41 456 46 454 52 454 b 62 454 73 460 71 468 b 72 546 91 620 162 621 b 260 623 308 484 231 330 b 176 221 128 242 114 0 b 114 -13 126 -19 138 -19 b 150 -19 163 -13 163 0 b 161 244 266 223 333 356 b 406 501 351 666 196 668 b 83 669 32 583 39 461 z m 94 -90 b 94 -110 108 -124 128 -124 b 148 -124 161 -110 161 -90 b 161 -70 148 -57 128 -57 b 108 -57 94 -70 94 -90 z"},"<":{"x_min":0,"x_max":328,"ha":328,"o":"m 31 336 b 26 332 25 291 33 284 l 254 142 b 272 130 283 177 267 187 l 71 312 l 255 454 b 270 465 257 510 240 497 z"},"'":{"x_min":0,"x_max":225,"ha":225,"o":""},"=":{"x_min":0,"x_max":299,"ha":299,"o":"m 241 346 b 257 346 255 387 241 387 l 45 387 b 25 387 29 343 45 346 z m 241 264 b 257 264 255 305 241 305 l 45 305 b 25 305 29 261 45 264 z"},"a":{"x_min":0,"x_max":402,"ha":402,"o":"m 118 173 b 115 88 130 7 199 7 b 291 7 349 154 397 258 b 402 268 389 276 378 276 b 373 276 368 274 366 270 b 322 163 265 60 220 60 b 180 60 221 266 234 347 b 238 369 216 384 192 384 b 172 384 152 375 141 353 b 134 357 126 360 117 362 b -57 398 -132 65 -15 41 b 41 29 86 100 118 173 z m 131 302 b 108 242 49 92 16 99 b -23 107 34 341 111 329 b 124 327 131 319 133 314 b 133 313 133 312 132 311 l 132 305 b 131 304 131 303 131 302 z"},"L":{"x_min":0,"x_max":506,"ha":506,"o":"m 22 -7 b 9 -5 -4 -4 -17 -4 b -70 -4 -123 -23 -175 -75 b -304 -204 -218 -322 -107 -322 b 20 -322 86 -191 108 -83 b 200 -132 290 -207 369 -207 b 422 -207 470 -174 512 -76 b 516 -64 507 -54 497 -54 b 491 -54 486 -56 482 -63 b 454 -129 418 -153 376 -153 b 304 -153 214 -82 117 -38 b 157 185 147 499 126 699 b 124 736 94 755 65 755 b 36 755 8 736 7 695 b 27 500 48 213 22 -7 z m 16 -47 b 13 -70 9 -92 4 -113 b -21 -226 -82 -269 -132 -269 b -200 -269 -247 -190 -155 -99 b -113 -58 -70 -42 -27 -42 b -13 -42 2 -44 16 -47 z"},"3":{"x_min":0,"x_max":456,"ha":456,"o":"m 61 575 b 58 566 67 561 74 561 b 79 561 83 563 84 567 b 115 652 178 693 224 693 b 333 693 311 462 163 461 b 151 461 153 428 162 428 b 396 421 356 21 168 21 b 111 21 57 58 50 132 b 49 139 41 142 33 142 b 25 142 16 139 17 132 b 26 44 100 -16 199 -16 b 453 -16 516 378 254 443 b 468 484 417 749 239 733 b 168 727 98 678 61 575 z"},";":{"x_min":0,"x_max":131,"ha":131,"o":"m 30 388 b 30 368 44 354 64 354 b 84 354 98 368 98 388 b 98 408 84 421 64 421 b 44 421 30 408 30 388 z m 64 219 b 68 219 72 220 76 221 b 72 195 62 187 48 188 b 42 188 42 182 48 181 b 109 176 121 287 64 287 b 44 287 30 273 30 253 b 30 233 44 219 64 219 z"},"J":{"x_min":0,"x_max":756,"ha":756,"o":"m 455 149 b 305 150 134 197 17 184 b -244 156 1 -365 263 -345 b 427 -333 512 -115 554 123 b 632 136 699 171 745 246 b 753 261 742 270 731 270 b 725 270 720 268 717 263 b 680 203 625 172 560 158 b 592 360 595 570 589 676 b 589 688 582 696 572 701 b 604 702 633 702 657 698 b 699 692 719 679 724 660 b 727 655 732 652 737 652 b 746 652 757 660 755 669 b 744 708 705 724 662 730 b 618 736 562 734 505 731 b 448 728 388 724 336 725 b 283 726 242 732 216 748 b 206 757 189 731 199 720 b 381 610 485 546 476 321 b 471 264 464 206 455 149 z m 486 494 b 454 581 390 637 305 693 b 315 692 326 692 336 692 b 388 691 445 695 501 698 b 492 692 486 684 486 674 b 488 632 488 568 486 494 z m 450 117 b 414 -96 347 -285 227 -294 b 39 -308 -188 128 20 151 b 138 164 302 120 450 117 z"},"V":{"x_min":0,"x_max":452,"ha":452,"o":"m 450 755 b 450 764 442 769 433 769 b 426 769 418 765 416 756 b 370 561 258 8 200 8 b 178 8 142 230 102 714 b 100 744 76 757 51 757 b 22 757 -9 737 -2 703 b 47 25 130 -54 178 -53 b 306 -51 403 532 450 755 z"},"\"":{"x_min":0,"x_max":408,"ha":408,"o":""},"7":{"x_min":0,"x_max":494,"ha":494,"o":"m 304 643 b 243 587 200 489 172 382 b 135 388 104 385 94 348 b 90 332 112 322 113 330 b 119 352 138 355 164 351 b 137 229 128 100 137 9 b 139 1 161 -2 184 -2 b 211 -2 241 3 240 11 b 233 86 238 208 257 326 b 271 323 285 321 298 321 b 323 321 344 329 355 354 b 360 363 341 381 337 376 b 329 360 315 355 296 355 b 286 355 275 357 263 359 b 284 473 317 580 364 632 b 388 623 411 619 423 618 b 515 609 519 711 430 703 b 394 700 365 689 337 670 b 277 684 202 701 139 701 b 72 701 18 682 9 620 b 8 613 18 608 26 608 b 32 608 36 610 37 615 b 42 650 83 661 138 661 b 188 661 249 652 304 643 z m 387 656 b 402 667 418 675 435 676 b 477 680 483 643 426 649 b 416 650 402 653 387 656 z"},"S":{"x_min":0,"x_max":573,"ha":573,"o":"m 464 561 b 459 548 469 539 479 539 b 485 539 492 542 495 550 b 561 745 426 840 282 840 b 152 840 15 762 11 609 b 5 343 412 197 408 -11 b 406 -85 353 -120 301 -120 b 251 -120 203 -89 203 -33 b 203 1 218 29 234 42 b 249 52 239 72 225 72 b 221 72 217 71 213 68 b 189 48 170 10 170 -33 b 170 -120 238 -164 311 -164 b 397 -164 490 -103 493 21 b 498 270 130 380 135 617 b 138 731 226 786 312 786 b 414 786 513 709 464 561 z"},"}":{"x_min":0,"x_max":380,"ha":380,"o":"m 28 717 b 257 736 60 370 217 287 b 59 203 260 -162 31 -143 b 19 -142 7 -175 39 -175 b 404 -197 148 227 277 277 b 287 278 288 294 277 296 b 148 346 404 771 39 749 b 3 748 15 714 28 717 z"},"Z":{"x_min":0,"x_max":608,"ha":608,"o":"m 229 384 b 237 387 245 391 254 391 b 275 391 296 383 314 372 b 398 319 411 217 397 121 b 332 136 274 156 219 156 b 102 156 33 63 25 -35 b 16 -148 92 -219 187 -219 b 336 -219 446 -60 479 73 l 496 73 b 544 73 584 86 604 133 b 609 142 596 150 586 150 b 580 150 575 148 573 143 b 558 108 531 106 513 106 b 504 106 495 106 486 107 b 504 220 474 337 361 397 b 334 412 303 420 272 420 l 268 420 b 435 552 363 706 257 706 b 190 706 111 645 69 482 b 63 456 77 441 90 441 b 97 441 104 446 108 456 b 139 575 207 622 258 622 b 331 622 368 528 214 413 b 203 405 220 378 229 384 z m 391 88 b 368 -17 294 -180 171 -180 b 104 -180 51 -122 58 -37 b 65 45 124 121 216 124 b 268 126 329 104 391 88 z"},"x":{"x_min":0,"x_max":309,"ha":309,"o":"m -84 5 b -89 -4 -74 -15 -63 -15 b -60 -15 -58 -14 -56 -12 b -33 19 -11 49 12 79 b 36 28 71 -10 119 -10 b 192 -10 253 127 305 267 b 309 280 298 288 288 288 b 282 288 276 285 274 278 b 217 121 169 51 138 51 b 112 51 92 104 78 165 b 123 223 168 281 214 342 b 221 349 196 370 188 361 b 148 309 109 258 70 208 b 60 262 54 314 52 336 b 50 355 32 362 11 362 b -16 362 -47 349 -47 333 b -43 288 -32 192 -3 114 b -30 78 -57 42 -84 5 z"},")":{"x_min":0,"x_max":347,"ha":347,"o":"m 17 -174 b 5 -181 34 -197 47 -192 b 391 -17 383 601 65 769 b 56 773 24 762 36 752 b 240 591 247 -7 17 -174 z"},"&":{"x_min":0,"x_max":634,"ha":634,"o":"m 433 18 b 474 -16 514 -36 548 -36 b 571 -36 591 -27 608 -6 b 615 4 591 31 579 20 b 569 8 558 2 545 2 b 523 2 497 18 470 45 b 509 80 532 128 527 186 b 523 225 506 263 479 290 b 505 282 530 274 553 274 b 580 274 603 285 618 318 b 622 328 612 347 604 347 b 602 347 600 346 599 343 b 589 319 571 311 550 311 b 504 311 439 349 388 349 b 361 349 337 338 323 303 b 318 290 328 274 336 274 b 338 274 340 275 342 279 b 353 305 372 313 396 312 b 443 300 479 245 482 183 b 485 137 470 101 445 72 b 386 142 324 255 282 369 b 328 405 374 443 409 489 b 531 649 410 758 293 758 b 215 758 138 710 135 596 b 133 527 158 439 198 351 b 115 290 42 227 40 134 b 37 22 141 -30 252 -30 b 316 -30 382 -14 433 18 z m 270 403 b 245 478 229 551 229 611 b 229 690 272 723 318 723 b 394 723 477 632 381 507 b 351 468 312 435 270 403 z m 91 139 b 93 210 147 263 214 316 b 266 211 338 108 407 41 b 367 16 317 3 268 3 b 175 3 89 48 91 139 z"},"_":{"x_min":0,"x_max":243,"ha":243,"o":"m 191 -24 b 207 -24 205 17 191 17 l 28 17 b 8 17 12 -27 28 -24 z"},"v":{"x_min":0,"x_max":375,"ha":375,"o":"m 87 -7 b 194 3 208 201 209 278 b 233 249 270 225 305 225 b 328 225 351 237 368 266 b 375 276 362 288 350 288 b 346 288 342 286 339 282 b 329 264 316 257 302 257 b 264 257 220 313 207 343 b 205 347 200 349 195 349 b 186 349 175 344 176 337 b 177 288 160 43 99 39 b 35 35 60 311 60 342 b 61 365 37 377 12 377 b -12 377 -36 365 -36 342 b -41 161 -15 -17 87 -7 z"},"O":{"x_min":0,"x_max":640,"ha":640,"o":"m 272 -86 b 616 -105 692 728 273 725 b 6 723 -79 384 69 242 b 67 74 118 -77 272 -86 z m 171 188 b 191 183 212 181 236 181 b 260 181 286 183 315 189 b 321 191 321 223 307 221 b 290 219 273 218 258 218 b 226 218 198 222 174 231 b 189 401 245 595 276 652 b 281 661 250 667 221 667 b 201 667 182 664 176 657 b 130 591 86 451 73 311 b -11 448 70 689 267 691 b 619 695 547 -67 276 -52 b 189 -47 165 59 171 188 z"},"(":{"x_min":0,"x_max":324,"ha":324,"o":"m 322 750 b 334 757 306 773 293 768 b -51 593 -44 -25 274 -193 b 283 -197 315 -185 303 -175 b 99 -14 92 583 322 750 z"},"C":{"x_min":0,"x_max":502,"ha":502,"o":"m 293 782 b -51 782 -114 -107 224 -107 b 341 -107 437 7 506 265 b 510 276 499 286 489 286 b 483 286 477 283 475 275 b 403 10 303 -54 239 -54 b 53 -54 101 729 306 741 b 384 746 385 632 318 542 b 305 520 318 499 335 499 b 342 499 349 503 356 511 b 409 579 457 782 293 782 z"},"W":{"x_min":0,"x_max":759,"ha":759,"o":"m 356 709 b 356 709 356 708 356 708 l 355 705 b 354 700 353 696 353 692 b 319 474 237 156 195 152 b 134 146 117 675 113 717 b 112 761 92 779 70 779 b 41 779 9 747 12 704 b 46 215 87 89 186 99 b 265 107 330 361 361 553 b 393 34 453 -18 505 -17 b 637 -15 700 401 713 650 b 713 659 705 664 696 664 b 689 664 681 660 679 651 b 668 430 581 49 523 49 b 501 49 488 216 458 694 b 456 724 432 738 407 738 b 386 738 364 728 356 708 z"},"A":{"x_min":0,"x_max":632,"ha":632,"o":"m 70 0 b 73 26 83 112 98 218 b 139 233 205 237 267 237 b 307 237 346 236 375 234 b 404 64 442 -115 496 -264 b 502 -286 522 -297 540 -297 b 563 -297 584 -281 577 -251 b 537 -113 472 853 250 845 b 103 840 0 118 -12 0 b -15 -29 3 -46 23 -46 b 41 -46 61 -32 70 0 z m 103 254 b 139 493 196 810 251 812 b 294 813 320 560 369 268 b 283 270 186 276 103 254 z"},"f":{"x_min":0,"x_max":373,"ha":373,"o":"m 112 32 b 201 39 321 116 365 257 b 370 270 360 278 349 278 b 343 278 336 274 334 267 b 289 113 127 60 67 66 b 61 224 74 444 121 580 b 125 598 114 607 97 607 b 68 607 22 579 6 519 b -42 331 -61 13 -23 -176 b 8 -329 79 -392 139 -392 b 213 -392 270 -299 222 -167 b 200 -106 146 -10 112 32 z m 68 33 b 99 0 166 -110 188 -170 b 220 -257 191 -332 155 -332 b 127 -332 93 -287 79 -168 b 73 -119 69 -32 68 33 z"},"Q":{"x_min":0,"x_max":671,"ha":671,"o":"m 104 242 b 102 74 153 -77 307 -86 b 651 -105 727 727 308 725 b 41 723 -44 384 104 242 z m 350 189 b 357 191 356 223 342 221 b 325 219 308 218 293 218 b 261 218 233 222 209 231 b 223 401 280 595 311 652 b 316 661 285 667 256 667 b 236 667 217 664 211 657 b 165 591 121 452 108 311 b 24 449 105 688 302 691 b 655 695 582 -67 311 -52 b 224 -47 200 59 206 188 b 226 184 248 181 272 181 b 297 181 323 184 350 189 z m 105 -98 b 131 -167 181 -191 244 -191 b 375 -191 558 -89 674 -89 b 720 -89 756 -105 773 -150 b 774 -153 777 -155 781 -155 b 793 -155 814 -140 804 -117 b 781 -56 735 -34 677 -34 b 551 -34 368 -137 248 -137 b 196 -137 156 -119 136 -65 b 135 -62 132 -60 128 -60 b 116 -60 96 -79 105 -98 z"},"w":{"x_min":0,"x_max":560,"ha":560,"o":"m 268 -2 b 371 2 396 198 402 275 b 425 244 463 217 498 217 b 521 217 543 227 560 254 b 567 264 554 277 543 277 b 539 277 536 275 533 272 b 522 256 510 249 497 249 b 458 249 416 309 405 341 b 404 345 399 346 394 346 b 384 346 371 341 372 336 b 370 287 339 44 282 44 b 223 44 255 303 257 334 b 258 355 230 365 204 365 b 182 365 161 358 160 346 b 160 345 160 344 160 343 b 139 278 86 116 53 115 b 18 113 40 286 44 346 b 46 359 27 366 6 366 b -17 366 -42 358 -44 340 b -50 236 -45 66 31 67 b 98 68 138 192 156 253 b 154 107 186 -5 268 -2 z"},"-":{"x_min":0,"x_max":282,"ha":282,"o":"m 224 304 b 240 304 238 352 224 352 l -2 352 b -22 352 -18 301 -2 304 z"},"E":{"x_min":0,"x_max":492,"ha":492,"o":"m 231 470 b -74 366 -111 -162 165 -161 b 364 -160 453 176 485 258 b 491 271 481 280 470 280 b 464 280 457 277 454 269 b 419 179 317 -98 194 -99 b 26 -100 97 387 276 458 b 294 461 290 490 272 489 b 141 499 219 790 325 775 b 401 764 368 615 343 576 b 336 563 353 549 369 549 b 376 549 384 552 389 561 b 438 655 417 801 307 822 b 128 857 0 504 231 470 z"},"s":{"x_min":0,"x_max":296,"ha":296,"o":"m 46 120 b -3 76 -45 27 -68 -30 b -120 -157 -43 -234 41 -234 b 112 -234 189 -179 199 -54 b 205 25 182 96 145 152 b 195 189 244 212 280 226 b 294 233 287 264 271 258 b 233 244 181 218 128 179 b 106 218 7 338 -10 407 b -22 458 10 485 41 485 b 70 485 98 461 85 412 b 80 402 93 393 104 393 b 108 393 112 394 115 398 b 146 489 89 538 28 538 b -24 538 -79 503 -85 429 b -94 319 9 184 46 120 z m -37 -43 b -21 1 16 46 61 88 b 83 42 97 -10 92 -72 b 85 -151 53 -182 21 -182 b -24 -182 -67 -121 -37 -43 z"},">":{"x_min":0,"x_max":331,"ha":331,"o":"m 277 304 b 282 308 283 349 275 356 l 54 498 b 36 510 25 463 41 453 l 237 328 l 53 186 b 38 175 51 130 68 143 z"},"l":{"x_min":0,"x_max":310,"ha":310,"o":"m 135 674 b 144 706 120 725 94 725 b 72 725 48 712 39 684 b 2 556 -155 -78 74 -79 b 213 -80 266 152 304 258 b 307 268 297 274 287 274 b 280 274 274 272 272 266 b 227 136 167 -25 98 -25 b -30 -24 95 532 135 674 z"},"8":{"x_min":0,"x_max":462,"ha":462,"o":"m 451 157 b 448 243 376 306 299 366 b 355 417 408 471 404 553 b 399 669 302 725 207 725 b 108 725 12 664 26 547 b 36 465 97 406 164 352 b 104 298 46 235 34 175 b 10 52 121 -8 234 -8 b 343 -8 455 48 451 157 z m 274 385 b 196 446 118 505 106 583 b 96 650 153 686 216 686 b 286 686 364 643 367 551 b 370 480 324 430 274 385 z m 189 333 b 276 268 365 210 368 129 b 370 63 295 26 219 26 b 135 26 50 71 69 171 b 79 223 131 280 189 333 z"},"\\":{"x_min":0,"x_max":372,"ha":372,"o":"m 349 -31 b 351 -36 358 -38 367 -38 b 382 -38 402 -30 397 -21 l 19 726 b 17 730 10 732 2 732 b -14 732 -34 725 -30 717 z"},"e":{"x_min":0,"x_max":313,"ha":313,"o":"m 77 -7 b 49 -8 20 65 18 145 b 111 167 173 218 182 278 b 190 332 150 366 99 367 b -114 372 -114 -56 57 -53 b 154 -51 253 88 310 256 b 315 270 307 278 297 278 b 289 278 281 273 277 261 b 218 90 108 -6 77 -7 z m 18 180 b 19 232 39 323 101 332 b 131 336 157 316 150 279 b 142 235 93 198 18 180 z"},"b":{"x_min":0,"x_max":504,"ha":504,"o":"m -29 -43 b -86 -164 -11 -266 90 -266 b 170 -266 268 -201 329 -29 b 353 37 366 106 369 168 b 400 171 431 171 461 168 b 481 166 486 197 464 201 b 433 204 401 204 369 201 b 366 309 324 389 234 384 b 145 378 81 291 39 180 b 48 335 73 470 122 644 b 131 676 107 695 81 695 b 59 695 35 682 26 654 b -42 418 -74 215 -62 -3 b -58 -25 -45 -38 -29 -43 z m 35 46 b 35 48 35 50 35 51 b 74 218 146 337 216 341 b 272 345 287 274 278 184 b 187 160 102 113 35 46 z m 35 -5 b 91 69 187 123 274 149 b 259 43 184 -206 62 -206 b 1 -206 -35 -128 13 -38 b 24 -33 32 -24 35 -14 b 35 -11 35 -8 35 -5 z"},"%":{"x_min":0,"x_max":607,"ha":607,"o":"m 135 368 b 281 368 287 687 133 687 b -12 687 -18 368 135 368 z m 133 678 b 197 678 191 377 135 377 b 72 377 78 678 133 678 z m 464 647 b 468 655 447 662 431 662 b 423 662 417 661 415 657 l 98 30 b 93 21 112 14 128 14 b 137 14 145 16 147 21 z m 456 29 b 602 29 608 348 454 348 b 309 348 303 29 456 29 z m 454 339 b 518 339 512 38 456 38 b 393 38 399 339 454 339 z"},"m":{"x_min":0,"x_max":705,"ha":705,"o":"m 700 271 b 701 277 692 282 682 282 b 676 282 669 279 667 273 b 643 178 570 -48 531 -48 b 477 -48 576 321 434 321 b 363 321 310 230 284 137 b 282 247 258 365 189 365 b 111 365 77 217 49 132 b 48 174 48 234 49 295 b 49 317 27 327 4 327 b -19 327 -43 316 -41 295 b -42 205 -39 73 -23 13 b -20 5 -6 1 9 1 b 29 1 51 7 51 16 l 51 17 b 69 84 127 303 160 305 b 190 306 185 134 195 17 b 196 5 216 -1 237 -1 b 261 -1 285 6 285 20 b 307 93 357 248 392 250 b 446 253 352 -113 521 -107 b 601 -104 677 166 700 271 z"},"#":{"x_min":0,"x_max":585,"ha":585,"o":"m 140 -3 b 140 -10 148 -16 157 -16 b 163 -16 169 -13 173 -8 b 206 28 223 116 230 215 l 374 215 b 371 132 366 58 360 15 b 359 6 387 -7 411 -7 b 424 -7 436 -2 440 9 b 446 51 452 129 454 215 l 553 215 b 567 215 567 236 553 236 l 454 236 b 455 277 454 319 453 360 l 553 360 b 569 360 567 381 553 381 l 452 381 b 445 491 429 591 393 631 b 389 637 382 639 376 639 b 368 639 360 634 360 627 b 371 583 376 487 376 381 l 234 381 b 233 478 227 567 220 614 b 216 625 204 630 191 630 b 167 630 139 617 140 608 b 147 561 152 475 155 381 l 41 381 b 21 381 25 357 41 360 l 155 360 b 156 319 156 277 156 236 l 41 236 b 25 236 25 215 41 215 l 156 215 b 155 121 150 37 140 -3 z m 231 236 b 234 277 235 319 234 360 l 376 360 b 376 319 376 277 374 236 z"},",":{"x_min":0,"x_max":73,"ha":73,"o":"m 25 -58 b 29 -58 33 -57 37 -56 b 34 -82 23 -90 9 -89 b 3 -89 3 -95 9 -96 b 70 -101 82 10 25 10 b 5 10 -9 -3 -9 -24 b -9 -44 5 -58 25 -58 z"},"n":{"x_min":0,"x_max":458,"ha":458,"o":"m 459 267 b 460 273 450 278 441 278 b 435 278 429 276 427 270 b 403 175 344 -8 300 -8 b 257 -8 347 366 203 366 b 120 366 77 236 53 136 b 52 189 52 242 53 295 b 54 309 33 316 11 316 b -13 316 -38 308 -37 295 b -38 205 -35 73 -19 13 b -17 6 -2 1 14 1 b 33 1 52 7 55 22 b 77 96 129 296 166 298 b 218 301 129 -63 294 -63 b 374 -63 436 162 459 267 z"},"h":{"x_min":0,"x_max":460,"ha":460,"o":"m 134 683 b 143 715 120 734 93 734 b 71 734 48 721 39 693 b -28 457 -61 255 -49 37 b -44 7 -23 -5 -1 -5 b 20 -5 42 7 47 25 b 47 26 47 26 47 27 b 71 110 117 288 151 290 b 207 293 115 -73 280 -73 b 360 -73 435 162 458 267 b 459 273 449 278 440 278 b 434 278 428 276 426 270 b 402 175 335 -14 291 -14 b 237 -14 338 366 194 366 b 116 366 74 252 49 155 b 55 338 78 486 134 683 z"},"z":{"x_min":0,"x_max":338,"ha":338,"o":"m 323 -337 b 350 -269 358 -193 346 -122 b 366 -125 386 -129 407 -135 b 422 -141 433 -109 418 -104 b 391 -96 365 -90 338 -88 b 310 10 241 94 126 127 b 214 187 269 344 176 388 b 163 394 150 397 137 397 b 75 397 10 336 -33 270 b -38 253 -26 245 -15 245 b -8 245 -1 248 3 253 b 31 293 73 328 105 328 b 117 328 127 324 135 313 b 177 257 124 149 71 138 b 50 127 60 104 78 106 b 173 80 219 -1 235 -93 b 115 -115 7 -194 -48 -312 b -121 -468 -46 -562 60 -562 b 149 -562 261 -494 323 -337 z m -15 -322 b 36 -214 131 -144 239 -125 b 246 -203 234 -283 213 -340 b 168 -461 93 -514 35 -514 b -31 -514 -72 -443 -15 -322 z"},"B":{"x_min":0,"x_max":764,"ha":764,"o":"m 53 104 b -94 26 -52 -161 179 -161 b 381 -161 580 -43 614 168 b 688 187 744 213 758 255 b 762 267 751 275 741 275 b 735 275 729 273 727 266 b 717 238 676 218 617 203 b 624 337 549 456 403 456 b 378 456 354 452 329 447 b 578 636 526 825 408 825 b 366 825 315 800 266 741 b 211 673 174 578 133 448 b 132 531 132 613 132 695 b 131 736 105 755 79 755 b 52 755 25 736 23 699 b 23 507 39 300 53 104 z m 141 364 b 175 475 219 608 273 673 b 300 706 328 721 352 721 b 429 721 459 572 263 440 b 235 421 196 399 141 364 z m 491 180 b 368 162 224 152 134 132 b 134 194 134 257 134 320 b 187 355 292 410 358 410 b 460 410 507 299 491 180 z m 161 -117 b 11 -117 -36 -2 56 65 b 58 42 59 19 61 -4 b 63 -25 80 -34 96 -34 b 115 -34 133 -23 133 -3 b 133 31 133 65 134 99 b 217 120 358 128 485 145 b 447 -9 321 -117 161 -117 z"},"K":{"x_min":0,"x_max":701,"ha":701,"o":"m 202 -114 b 204 -135 223 -144 242 -144 b 263 -144 284 -133 284 -113 b 263 18 256 189 260 355 b 292 376 418 -4 531 -4 b 601 -4 661 142 708 257 b 711 265 698 276 688 276 b 683 276 679 274 677 268 b 630 157 576 53 551 53 b 505 53 449 387 298 393 b 377 422 546 561 572 781 b 574 789 559 796 547 796 b 540 796 534 794 533 787 b 499 531 290 417 262 419 b 266 519 273 615 281 695 b 280 736 252 755 223 755 b 194 755 164 736 162 699 b 154 624 149 533 149 437 b 148 437 147 437 146 437 b 29 438 24 320 151 328 b 156 169 172 7 202 -114 z m 150 361 b 69 355 75 405 146 404 b 147 404 148 404 149 404 b 149 390 150 375 150 361 z"},"R":{"x_min":0,"x_max":547,"ha":547,"o":"m 150 283 b 212 230 218 -13 325 -13 b 398 -13 466 103 550 270 b 553 278 540 289 530 289 b 525 289 521 287 519 281 b 435 118 374 44 348 44 b 312 44 310 197 239 280 b 465 336 626 856 342 845 b 236 841 155 710 114 565 b 120 651 129 732 142 801 b 145 844 112 866 80 866 b 51 866 22 849 17 815 b -24 594 2 223 40 -4 b 45 -29 67 -40 86 -40 b 105 -40 121 -30 118 -14 b 110 78 106 190 106 306 b 121 296 136 288 151 283 z m 106 341 b 131 547 230 788 321 794 b 456 802 342 310 200 307 b 179 307 125 316 107 343 z"},"T":{"x_min":0,"x_max":557,"ha":557,"o":"m -4 760 b 46 758 118 766 200 779 b 269 708 309 606 332 510 b 308 262 311 -53 477 -30 b 504 -26 511 15 479 14 b 373 6 427 596 472 807 b 473 814 474 819 473 824 b 572 840 667 852 741 852 b 808 852 858 842 877 815 b 879 813 881 812 884 812 b 896 812 913 826 904 837 b 869 884 795 901 703 901 b 556 901 362 857 204 823 b 151 866 89 894 17 902 b -165 923 -162 767 -4 760 z m 14 869 b 72 863 120 843 160 814 b 99 801 44 793 0 793 b -93 793 -149 885 14 869 z m 344 616 b 322 679 288 738 244 786 b 288 793 334 801 380 809 b 376 803 374 797 372 790 b 367 766 355 700 344 616 z"},"P":{"x_min":0,"x_max":598,"ha":598,"o":"m 114 128 b 161 634 316 629 327 629 b 380 628 409 585 418 525 b 360 505 305 474 256 435 b 60 276 126 103 251 85 b 428 59 552 334 521 516 b 542 519 563 521 584 521 b 612 522 608 555 583 554 b 560 554 537 551 514 548 b 492 621 441 673 351 671 b 295 670 180 648 116 363 b 120 471 128 571 141 650 b 143 693 111 714 79 714 b 50 714 21 697 16 662 b -22 440 13 19 54 -207 b 60 -232 81 -242 100 -242 b 119 -242 135 -232 132 -216 b 123 -123 116 0 114 128 z m 421 491 b 427 351 353 154 261 142 b 172 130 120 282 284 414 b 324 447 371 473 421 491 z"},"|":{"x_min":0,"x_max":138,"ha":138,"o":"m 89 760 b 89 767 77 771 64 771 b 52 771 39 767 39 760 l 48 -183 b 48 -191 60 -195 72 -195 b 85 -195 98 -190 98 -182 z"},"t":{"x_min":0,"x_max":283,"ha":283,"o":"m -2 714 b -10 684 -14 653 -18 623 b -19 619 -20 613 -21 607 b -41 607 -60 608 -78 608 b -107 608 -136 609 -165 609 b -188 605 -179 577 -165 576 b -124 576 -75 574 -25 573 b -44 406 -71 -1 78 -1 b 172 -1 247 164 283 267 b 287 277 276 286 266 286 b 260 286 254 283 251 276 b 217 181 145 67 107 68 b 49 70 50 383 63 573 b 125 575 184 581 230 598 b 265 611 301 634 294 673 b 294 679 287 683 280 683 b 271 683 261 678 261 667 b 263 656 255 642 219 629 b 176 613 120 608 65 607 b 69 653 74 688 78 705 b 81 722 56 733 33 733 b 16 733 1 727 -2 714 z"},"M":{"x_min":0,"x_max":890,"ha":890,"o":"m 101 204 b 127 510 207 666 254 667 b 313 668 316 148 317 28 b 318 -1 340 -17 363 -17 b 386 -17 409 -2 411 31 b 411 58 414 21 414 83 b 443 220 507 549 558 550 b 580 551 574 451 575 326 b 578 74 571 -51 690 -51 b 759 -51 845 152 888 263 b 892 275 882 284 872 284 b 866 284 860 280 857 273 b 817 178 735 1 690 1 b 633 1 747 621 578 621 b 492 621 439 386 409 238 b 408 435 400 718 269 718 b 203 718 134 615 93 401 b 92 488 95 574 104 655 b 103 696 75 715 46 715 b 17 715 -13 696 -15 659 b -39 435 6 161 61 -62 b 68 -85 86 -94 102 -94 b 121 -94 137 -82 133 -65 b 119 21 108 112 101 204 z"},"g":{"x_min":0,"x_max":351,"ha":351,"o":"m 225 363 b 222 380 202 387 182 387 b 173 387 163 385 156 382 b 149 387 140 390 130 392 b -44 428 -119 95 -2 71 b 69 55 123 174 155 261 b 160 186 159 91 152 -1 b 134 3 115 5 96 4 b -75 -2 -160 -118 -175 -232 b -194 -373 -113 -464 -17 -464 b 77 -464 185 -378 229 -167 b 235 -139 240 -111 243 -81 b 284 -116 313 -167 323 -223 b 325 -232 332 -236 339 -236 b 348 -236 357 -229 355 -217 b 343 -145 302 -82 246 -42 b 259 113 244 279 225 363 z m 147 344 b 147 342 147 341 147 339 b 126 285 63 122 30 129 b -10 137 47 371 124 359 b 137 357 146 349 147 344 z m 149 -34 b 145 -77 139 -118 132 -156 b 95 -343 23 -413 -39 -413 b -104 -413 -156 -335 -143 -237 b -129 -136 -55 -34 98 -29 b 116 -28 132 -30 149 -34 z"},"j":{"x_min":0,"x_max":248,"ha":248,"o":"m -33 458 b -35 428 -18 396 12 394 b 43 392 66 419 68 449 b 70 480 52 512 21 514 b -9 516 -31 489 -33 458 z m -49 19 b -150 -61 -251 -142 -301 -221 b -401 -379 -313 -532 -200 -532 b -118 -532 -22 -451 26 -233 b 47 -136 58 -36 62 64 b 144 131 216 199 248 275 b 252 285 242 294 231 294 b 226 294 220 292 217 285 b 193 229 134 170 64 110 b 66 190 65 269 63 348 b 63 360 47 367 28 367 b -3 367 -43 349 -42 309 b -39 213 -41 116 -49 19 z m -263 -226 b -217 -157 -137 -92 -53 -27 b -58 -82 -66 -135 -75 -189 b -112 -400 -179 -476 -232 -476 b -300 -476 -344 -348 -263 -226 z"},"i":{"x_min":0,"x_max":250,"ha":250,"o":"m -9 464 b -11 434 6 402 36 400 b 67 398 89 426 91 456 b 93 487 76 519 45 521 b 15 523 -7 495 -9 464 z m -39 317 b -51 247 -81 -1 37 -1 b 129 -1 196 154 244 258 b 249 268 236 276 225 276 b 220 276 215 274 213 270 b 180 195 112 60 67 60 b 31 60 53 230 67 322 b 71 347 48 359 23 359 b -4 359 -34 345 -39 317 z"},"y":{"x_min":0,"x_max":436,"ha":436,"o":"m -96 -264 b -115 -405 -33 -496 63 -496 b 157 -496 265 -410 309 -199 b 315 -171 319 -142 322 -112 b 364 -148 393 -198 403 -254 b 405 -263 412 -267 419 -267 b 428 -267 437 -260 435 -249 b 423 -177 383 -114 326 -73 b 339 82 324 247 305 331 b 302 347 283 355 263 355 b 246 355 229 349 223 337 b 190 253 117 53 71 53 b 34 53 50 243 63 332 b 66 355 44 366 21 366 b -4 366 -30 354 -33 331 b -45 261 -65 -3 52 -1 b 130 0 191 157 232 265 b 240 186 240 75 232 -32 b 214 -29 195 -27 176 -28 b 5 -34 -80 -150 -96 -264 z m 211 -188 b 174 -375 102 -445 41 -445 b -24 -445 -76 -367 -63 -269 b -49 -168 25 -66 177 -61 b 195 -60 212 -62 229 -66 b 225 -109 219 -150 211 -188 z"},"@":{"x_min":0,"x_max":834,"ha":834,"o":"m 182 -132 b 212 -147 245 -154 275 -154 b 324 -154 368 -135 386 -92 b 390 -82 379 -73 369 -73 b 365 -73 361 -75 359 -80 b 341 -115 309 -128 276 -128 b 240 -128 201 -112 178 -92 b 35 31 148 575 460 575 b 477 575 494 573 511 570 b 852 508 663 -47 512 -16 b 405 6 493 283 519 359 b 522 369 498 379 474 379 b 456 379 439 373 434 359 b 433 355 432 356 430 349 b 420 382 401 405 368 407 b 179 418 167 98 281 79 b 319 73 352 110 393 197 b 374 97 380 -32 511 -51 b 807 -94 970 543 494 605 b 473 608 452 609 432 609 b 2 609 -92 -1 182 -132 z m 300 138 b 272 154 304 375 372 375 b 402 375 411 323 414 300 b 349 147 319 128 300 138 z"},".":{"x_min":0,"x_max":101,"ha":101,"o":"m 23 -23 b 23 -44 37 -57 57 -57 b 77 -57 91 -44 91 -23 b 91 -3 77 10 57 10 b 37 10 23 -3 23 -23 z"},"p":{"x_min":0,"x_max":461,"ha":461,"o":"m -34 341 b -49 243 -121 -484 122 -449 b 149 -443 152 -401 121 -405 b 51 -414 34 -177 39 46 b 50 117 116 293 184 299 b 217 302 234 265 238 219 b 196 206 159 183 134 153 b 72 80 116 2 180 0 b 272 -2 330 99 338 196 b 367 193 396 183 421 166 b 439 158 446 189 432 197 b 404 215 372 225 339 229 b 336 305 300 370 222 366 b 137 361 80 277 46 192 b 50 251 56 303 62 343 b 67 368 43 384 17 384 b -5 384 -28 371 -34 341 z m 163 137 b 181 158 208 175 239 185 b 238 121 214 54 175 52 b 147 50 126 93 163 137 z"},"X":{"x_min":0,"x_max":589,"ha":589,"o":"m 146 274 b 201 122 275 -6 368 -6 b 473 -6 539 157 587 262 b 590 269 574 276 563 276 b 559 276 556 274 555 272 b 501 156 441 62 397 62 b 342 62 279 213 228 374 b 327 490 432 605 468 738 b 473 751 460 759 447 759 b 438 759 429 755 426 746 b 393 623 304 521 214 418 b 175 545 145 669 133 723 b 128 755 107 769 85 769 b 55 769 24 743 31 699 b 50 618 82 464 130 320 b 45 215 -24 104 -24 -34 b -25 -41 -14 -45 -3 -45 b 8 -45 19 -41 19 -34 b 19 80 74 179 146 274 z"},"*":{"x_min":0,"x_max":310,"ha":310,"o":"m 73 471 l 21 399 b 10 384 28 367 43 367 b 48 367 52 369 55 374 l 91 425 l 92 347 b 92 335 101 329 111 329 b 123 329 136 337 134 348 l 133 428 l 173 371 b 175 367 179 365 184 365 b 198 365 216 382 207 394 l 152 471 l 247 471 b 268 471 266 512 247 512 l 153 512 l 207 587 b 215 601 197 617 183 617 b 179 617 175 616 173 612 l 132 554 l 131 611 b 131 621 121 626 111 626 b 100 626 89 621 89 611 l 89 558 l 55 607 b 52 612 47 615 41 615 b 27 615 10 600 21 585 l 73 512 l -15 512 b -42 512 -36 467 -15 471 z"},"Y":{"x_min":0,"x_max":711,"ha":711,"o":"m -28 131 b -289 103 -43 -417 218 -398 b 382 -385 467 -167 509 71 b 588 84 655 118 701 193 b 709 209 698 217 687 217 b 681 217 676 215 673 210 b 636 150 581 119 515 106 b 547 308 550 517 544 623 b 544 645 520 655 496 655 b 470 655 443 644 441 624 b 383 436 304 240 271 240 b 209 240 240 694 240 736 b 242 772 218 790 193 790 b 167 790 140 771 138 732 b 126 241 158 187 257 188 b 322 188 393 352 443 514 b 442 401 434 245 411 96 b 261 97 89 144 -28 131 z m 183 -346 b -5 -360 -233 76 -24 98 b 94 111 258 67 406 64 b 370 -149 302 -337 183 -346 z"},"c":{"x_min":0,"x_max":332,"ha":332,"o":"m 117 369 b 135 369 150 343 145 323 b 142 313 152 303 161 303 b 167 303 174 308 176 319 b 183 352 166 404 102 404 b -80 404 -117 -15 65 -12 b 157 -10 231 97 330 268 b 332 276 320 283 310 283 b 305 283 300 281 298 276 b 192 102 120 38 83 37 b -1 35 51 369 117 369 z"},"!":{"x_min":0,"x_max":188,"ha":188,"o":"m 46 -3 b 46 -10 62 -16 76 -16 b 86 -16 95 -13 99 -8 b 181 83 163 492 146 614 b 142 625 128 630 110 630 b 81 630 45 617 46 608 b 63 485 72 99 46 -3 z m 11 -90 b 11 -110 25 -124 45 -124 b 65 -124 79 -110 79 -90 b 79 -70 65 -57 45 -57 b 25 -57 11 -70 11 -90 z"},"/":{"x_min":0,"x_max":324,"ha":324,"o":"m 388 717 b 392 725 372 732 356 732 b 348 732 341 730 339 726 l -39 -21 b -44 -30 -24 -38 -8 -38 b 0 -38 8 -36 10 -31 z"},"[":{"x_min":0,"x_max":355,"ha":355,"o":"m 291 -181 b 307 -181 305 -148 291 -148 l 136 -148 l 127 735 l 291 735 b 307 735 305 768 291 768 l 86 768 b 72 768 21 768 21 745 l 30 -157 b 30 -186 73 -181 86 -181 z"},"6":{"x_min":0,"x_max":458,"ha":458,"o":"m 247 -10 b 497 -7 479 373 253 351 b 206 346 158 325 134 281 b 136 471 206 674 325 670 b 339 669 338 701 324 703 b -5 703 -95 -14 247 -10 z m 135 228 b 150 289 195 309 227 313 b 374 332 389 25 252 23 b 178 22 142 107 135 228 z"},"r":{"x_min":0,"x_max":338,"ha":338,"o":"m 71 26 b 34 141 136 260 172 263 b 211 266 229 218 263 218 b 280 218 300 229 327 260 b 336 269 328 289 316 289 b 313 289 309 288 306 284 b 291 268 280 262 271 262 b 238 262 228 335 168 330 b 130 326 85 271 60 183 b 61 250 64 274 79 335 b 88 370 54 391 21 391 b -4 391 -29 379 -35 349 b -55 212 -37 127 -9 16 b -3 -4 12 -11 29 -11 b 53 -11 78 6 71 26 z"},"2":{"x_min":0,"x_max":474,"ha":474,"o":"m 197 96 b 156 114 112 127 65 122 b -36 111 -22 -15 91 -10 b 138 -8 182 14 221 48 b 278 18 332 -17 379 -17 b 423 -17 446 17 460 55 b 463 63 450 75 438 75 b 433 75 429 72 427 67 b 417 40 405 22 373 22 b 336 22 293 47 245 72 b 423 266 481 733 216 727 b 146 725 75 676 47 580 b 45 574 57 569 68 569 b 74 569 79 571 81 575 b 102 638 149 673 194 669 b 351 656 322 264 197 96 z m 78 20 b 24 18 9 87 68 93 b 104 97 140 86 176 71 b 147 40 114 21 78 20 z"},"{":{"x_min":0,"x_max":353,"ha":353,"o":"m 273 717 b 286 714 297 748 261 749 b -104 771 152 346 23 296 b 12 294 13 278 23 277 b 152 227 -104 -197 261 -175 b 293 -175 282 -142 270 -143 b 41 -162 241 203 83 287 b 240 370 44 736 273 717 z"},"9":{"x_min":0,"x_max":438,"ha":438,"o":"m 155 699 b -95 696 -77 316 149 338 b 196 343 244 364 268 408 b 266 218 196 15 77 19 b 63 20 64 -12 78 -14 b 407 -14 497 703 155 699 z m 267 461 b 252 400 207 380 175 376 b 28 357 13 664 150 666 b 224 667 260 582 267 461 z"}," ":{"x_min":0,"x_max":250,"ha":250,"o":""},"I":{"x_min":0,"x_max":252,"ha":252,"o":"m 152 733 b 153 740 147 746 138 750 b 204 756 260 751 276 708 b 277 705 280 704 283 704 b 292 704 305 712 300 726 b 280 781 234 796 177 796 b 108 796 22 774 -55 774 b -85 774 -115 778 -141 787 b -155 794 -169 742 -153 726 b -40 620 29 447 61 299 b 65 145 70 5 72 -18 b 74 -27 92 -30 110 -30 b 131 -30 154 -25 155 -17 b 156 93 151 623 152 733 z m 58 435 b 24 540 -38 660 -105 733 b -93 728 -78 727 -60 727 b -28 727 12 733 53 739 b 53 638 55 536 58 435 z m -60 -75 b -65 -89 -55 -97 -45 -97 b -38 -97 -31 -94 -29 -86 b -21 -64 -6 -57 15 -57 b 56 -57 116 -86 168 -86 b 204 -86 237 -72 257 -25 b 260 -12 249 -2 240 -2 b 234 -2 229 -5 227 -13 b 214 -43 192 -53 164 -53 b 118 -53 58 -25 10 -25 b -21 -25 -46 -37 -60 -75 z"},"H":{"x_min":0,"x_max":975,"ha":975,"o":"m 850 455 b 1003 650 936 797 828 797 b 771 797 701 756 647 659 b 597 570 567 447 557 325 b 507 319 456 320 407 321 b 419 488 409 651 402 710 b 398 744 367 761 339 761 b 315 761 295 749 295 725 b 301 676 314 491 309 320 b 204 316 112 292 57 177 b -22 13 68 -141 177 -141 b 247 -141 325 -77 370 87 b 387 148 397 217 404 287 b 453 287 504 286 555 292 b 544 75 598 -131 719 -133 b 846 -135 940 168 974 263 b 977 273 965 280 955 280 b 949 280 944 278 943 273 b 913 193 815 -60 738 -58 b 671 -57 646 127 658 315 b 726 338 791 380 850 455 z m 660 349 b 668 446 687 542 714 612 b 751 709 804 750 844 750 b 911 750 946 635 823 473 b 774 408 718 371 660 349 z m 308 286 b 305 229 300 174 292 128 b 266 -18 209 -74 158 -74 b 86 -74 26 36 86 161 b 133 259 213 281 308 286 z"},"4":{"x_min":0,"x_max":406,"ha":406,"o":"m 257 653 b 302 658 302 491 287 307 b 205 314 108 303 57 289 b 149 392 226 521 233 675 b 233 692 217 702 202 702 b 191 702 182 696 180 685 b 173 522 55 326 8 281 b 2 274 17 238 24 242 b 71 266 190 282 284 274 b 277 191 267 106 257 34 b 256 25 289 12 315 12 b 331 12 344 17 348 28 b 352 61 365 152 373 256 b 381 253 389 249 395 244 b 402 239 415 265 406 273 b 397 280 387 285 375 290 b 385 480 372 696 257 681 b 241 679 240 652 257 653 z"},"~":{"x_min":0,"x_max":322,"ha":322,"o":"m 300 321 b 301 329 296 333 290 333 b 286 333 282 331 281 326 b 275 300 262 291 247 291 b 210 291 154 341 108 341 b 83 341 61 326 46 281 b 43 273 49 268 55 268 b 59 268 63 270 65 275 b 70 289 78 295 88 295 b 122 295 181 237 230 237 b 259 237 284 257 300 321 z"},"D":{"x_min":0,"x_max":707,"ha":707,"o":"m 57 135 b -116 47 -89 -175 145 -167 b 334 -160 471 -10 542 166 b 620 182 683 210 708 265 b 717 281 707 291 695 291 b 689 291 682 288 678 279 b 660 240 615 217 556 203 b 646 464 596 761 391 740 b 257 726 184 591 144 417 l 144 695 b 144 744 120 765 96 765 b 71 765 44 741 45 699 b 44 653 51 328 57 135 z m 443 186 b 342 176 228 176 145 162 l 145 207 b 162 402 242 674 378 689 b 517 704 533 427 443 186 z m 123 -123 b -37 -129 -67 23 58 97 b 65 32 68 11 70 -4 b 75 -27 94 -40 112 -40 b 129 -40 145 -28 145 -3 l 145 127 b 222 141 328 142 429 151 b 366 4 262 -117 123 -123 z"},"^":{"x_min":0,"x_max":334,"ha":334,"o":"m 188 558 b 185 563 171 566 157 566 b 142 566 127 563 124 558 l 12 399 b 5 389 30 377 46 377 b 51 377 55 378 57 381 l 156 522 l 256 381 b 258 378 262 377 267 377 b 283 377 308 389 301 399 z"},"0":{"x_min":0,"x_max":557,"ha":557,"o":"m 287 1 b 600 1 614 688 284 688 b -27 688 -40 1 287 1 z m 284 653 b 477 653 463 36 287 36 b 96 36 110 653 284 653 z"},"F":{"x_min":0,"x_max":651,"ha":651,"o":"m 115 57 b 129 -42 153 -134 185 -210 b 260 -387 375 -460 468 -460 b 605 -460 694 -299 534 -77 b 490 -16 435 39 368 82 b 491 112 586 168 653 251 b 661 264 651 278 640 278 b 636 278 631 276 628 272 b 561 189 462 134 326 107 b 300 121 273 131 244 141 b 240 192 238 245 238 297 b 344 347 519 462 595 552 b 771 760 628 950 454 950 b 366 950 270 901 204 781 b 119 627 88 389 103 167 b -40 170 -12 71 115 57 z m 238 334 b 240 483 265 898 482 898 b 605 898 708 738 570 574 b 501 492 341 386 238 334 z m 111 89 b 24 97 18 137 106 134 b 107 119 109 104 111 89 z m 248 95 b 248 96 248 97 248 98 l 247 102 b 247 103 247 104 247 105 b 249 104 251 104 252 103 l 264 99 b 265 98 267 98 269 97 b 267 97 266 97 264 96 l 253 96 b 252 95 250 95 248 95 z m 252 62 b 276 65 299 68 321 72 b 396 31 457 -26 503 -90 b 631 -267 580 -411 491 -411 b 434 -411 361 -351 309 -203 b 283 -129 264 -37 252 62 z"},"`":{"x_min":0,"x_max":150,"ha":150,"o":"m 46 539 b 43 544 37 545 29 545 b 5 545 -33 528 -24 520 b 7 496 36 474 65 452 b 71 448 88 456 84 464 b 69 493 61 508 46 539 z"},"k":{"x_min":0,"x_max":344,"ha":344,"o":"m 123 683 b 132 715 112 734 88 734 b 68 734 47 721 38 693 b -29 457 -61 254 -49 36 b -45 6 -26 -6 -7 -6 b 12 -6 31 6 36 25 b 36 89 37 148 40 204 b 71 141 129 60 187 63 b 249 66 302 164 340 258 b 344 270 334 279 324 279 b 317 279 311 276 308 268 b 267 166 216 111 194 110 b 167 109 112 184 92 226 b 266 215 307 445 174 441 b 114 439 77 391 52 345 b 65 452 87 558 123 683 z m 47 258 b 55 276 62 294 71 311 b 90 350 121 400 150 401 b 201 403 163 240 47 258 z"},"u":{"x_min":0,"x_max":432,"ha":432,"o":"m 160 329 b 135 266 75 137 51 136 b 13 134 46 286 50 346 b 53 364 33 375 12 375 b -9 375 -30 365 -33 340 b -38 292 -58 79 24 80 b 82 81 129 183 152 240 b 148 137 161 -51 246 -51 b 338 -51 397 156 432 258 b 435 268 423 276 413 276 b 408 276 403 274 401 270 b 374 192 314 3 265 3 b 228 3 244 245 257 334 b 260 355 242 366 220 366 b 197 366 170 354 160 329 z"},"]":{"x_min":0,"x_max":329,"ha":329,"o":"m 37 763 b 21 763 23 730 37 730 l 192 730 l 201 -153 l 37 -153 b 21 -153 23 -186 37 -186 l 242 -186 b 256 -186 307 -186 307 -163 l 298 739 b 298 768 255 763 242 763 z"},"U":{"x_min":0,"x_max":538,"ha":538,"o":"m 496 674 b 505 706 482 725 455 725 b 433 725 410 712 401 684 b 398 673 393 655 387 630 b 317 413 181 87 135 88 b 74 89 113 689 114 731 b 118 778 98 797 75 797 b 47 797 15 770 13 729 b -11 239 21 51 121 49 b 195 48 277 215 338 381 b 301 140 291 -152 452 -140 b 479 -138 489 -97 457 -96 b 351 -97 437 467 496 674 z"},"o":{"x_min":0,"x_max":327,"ha":327,"o":"m 319 263 b 326 273 314 284 303 284 b 298 284 293 282 291 277 b 270 241 245 223 208 217 b 210 294 171 363 102 365 b 69 366 49 350 40 329 b 33 334 24 336 16 336 b 2 336 -12 330 -20 317 b -74 208 -24 0 74 0 b 144 0 197 93 206 182 b 252 189 293 216 319 263 z m 57 295 b 59 302 62 305 64 309 b 65 312 64 315 61 317 b 67 331 81 341 102 340 b 150 339 168 281 167 213 b 119 213 74 235 59 284 b 58 287 57 292 57 295 z m 165 179 b 160 105 133 46 97 46 b 49 46 39 159 49 243 b 77 204 118 179 165 179 z"},"N":{"x_min":0,"x_max":598,"ha":598,"o":"m 404 233 b 404 390 422 741 289 741 b 211 741 130 539 101 354 b 95 457 97 560 109 671 b 113 712 84 732 54 732 b 24 732 -8 712 -10 675 b -34 452 13 244 68 21 b 75 -2 93 -11 110 -11 b 128 -11 144 0 140 17 b 130 80 121 141 114 201 b 133 385 201 633 253 634 b 275 635 285 561 286 436 b 287 331 291 246 294 208 b 310 2 383 -22 423 -20 b 518 -15 557 142 593 263 b 596 275 585 283 575 283 b 570 283 565 280 562 274 b 522 143 483 36 441 34 b 398 32 404 143 404 233 z"},"+":{"x_min":0,"x_max":316,"ha":316,"o":"m 101 301 l 101 218 b 101 209 113 204 125 204 b 139 204 154 210 152 218 l 152 301 l 232 301 b 248 301 246 349 232 349 l 151 349 l 151 414 b 151 421 140 425 128 425 b 114 425 100 420 100 413 l 100 349 l 26 349 b 6 349 10 298 26 301 z"},"G":{"x_min":0,"x_max":733,"ha":733,"o":"m 469 64 b 319 65 148 112 31 99 b -230 71 15 -450 277 -430 b 441 -418 526 -200 568 38 b 646 51 714 86 760 161 b 768 176 756 185 745 185 b 739 185 734 183 731 178 b 694 118 639 87 574 73 b 606 275 609 485 603 591 b 603 613 580 623 555 623 b 537 623 519 618 508 608 b 482 663 444 713 380 722 b 160 752 120 230 289 215 b 372 208 448 326 501 432 b 498 325 489 192 469 64 z m 502 514 b 455 417 370 272 314 277 b 223 285 276 681 401 659 b 449 651 480 588 501 533 b 501 532 501 530 501 528 l 502 519 b 502 517 502 516 502 514 z m 464 32 b 428 -181 361 -370 241 -379 b 53 -393 -174 43 34 66 b 152 79 316 35 464 32 z"},"q":{"x_min":0,"x_max":307,"ha":307,"o":"m 129 392 b -45 428 -120 95 -3 71 b 54 58 101 133 133 209 b 127 114 124 19 127 -75 b 92 -90 60 -113 37 -144 b 27 -159 34 -173 46 -173 b 51 -173 57 -171 63 -164 b 80 -141 103 -123 129 -111 b 129 -213 176 -452 309 -452 b 377 -452 437 -379 436 -269 b 435 -179 397 -81 279 -59 b 258 -55 236 -54 215 -55 b 214 100 227 282 236 351 b 236 367 222 373 205 373 b 194 373 181 370 171 366 b 161 381 147 388 129 392 z m 29 129 b -11 137 46 371 123 359 b 136 357 144 349 146 344 b 146 341 146 338 145 336 b 123 279 62 122 29 129 z m 272 -91 b 371 -110 402 -190 403 -270 b 404 -343 370 -394 330 -394 b 238 -394 216 -164 216 -106 l 215 -94 b 215 -92 215 -90 215 -88 b 234 -86 254 -88 272 -91 z"},"d":{"x_min":0,"x_max":354,"ha":354,"o":"m 323 674 b 332 706 309 725 282 725 b 260 725 237 712 228 684 b 218 648 186 517 164 370 b 151 381 135 388 119 391 b -52 419 -121 68 6 41 b 65 28 112 96 144 168 b 137 -4 165 -148 280 -140 b 308 -138 316 -97 284 -96 b 178 -97 264 467 323 674 z m 154 297 b 137 238 74 92 40 99 b -3 108 20 357 119 352 b 135 351 150 342 158 327 b 158 325 157 322 157 320 l 155 305 b 155 302 154 300 154 297 z"},"1":{"x_min":0,"x_max":213,"ha":213,"o":"m 38 648 b 116 657 55 164 37 34 b 36 25 73 12 102 12 b 119 12 134 17 138 28 b 156 159 228 704 47 681 b 36 680 30 648 38 648 z"},"5":{"x_min":0,"x_max":441,"ha":441,"o":"m 339 634 b 339 624 345 620 352 620 b 362 620 375 629 373 645 b 366 686 338 700 302 700 b 242 700 159 664 100 655 b 92 699 73 725 41 726 b -13 726 -2 632 57 624 b 62 559 59 475 59 430 b 58 407 64 398 75 403 b 113 418 145 425 172 425 b 265 425 297 343 299 242 b 301 136 269 31 177 30 b 139 30 99 47 79 89 b 78 92 75 94 72 94 b 62 94 47 82 50 74 b 73 21 124 -9 194 -8 b 333 -7 396 113 397 232 b 398 359 329 462 198 462 b 170 462 140 457 107 447 b 109 487 114 559 104 624 b 169 633 251 661 299 661 b 323 661 339 654 339 634 z m 55 655 b 21 663 29 715 41 703 b 48 699 52 681 55 655 z"}}}
